<svg version="1.1" xmlns="http://www.w3.org/2000/svg" viewBox="690 350 660 720" preserveAspectRatio="xMidYMid meet">
<path fill="rgb(51,56,28)" d="M 963.485 545.835 C 1017.69 572.745 1066.48 605.853 1086.79 666.118 C 1104.75 719.412 1087.5 784.551 1056.22 829.273 C 1070.31 818.961 1089.03 802.433 1095.12 785.818 C 1127.6 697.253 1197.42 662.694 1288.38 653.909 C 1282.54 702.325 1255.82 754.594 1216.68 784.166 C 1176.27 814.702 1143.15 818.731 1095.83 823.256 C 1126.52 789.442 1156.71 752.591 1194.83 726.056 L 1193.98 723.386 C 1163.19 742.015 1140.22 758.562 1114.59 784.346 C 1094.09 804.962 1076.37 825.864 1052.85 843.542 C 999.442 883.678 936.238 892.006 877.623 857.328 C 859.367 845.942 844.976 828.899 822.575 825.956 C 802.742 823.35 790.541 832.603 781.389 849.612 C 772.245 866.608 775.276 889.717 788.598 903.722 C 811.339 927.629 849.895 924.028 879.916 929.087 C 896.868 931.898 912.803 934.718 928.935 940.971 C 943.845 946.803 958.194 953.975 971.808 962.399 C 999.814 979.526 1016.13 994.778 1049.64 1000.03 C 1081.66 1007.56 1117.44 984.33 1146.89 987.002 C 1187.6 990.695 1173.77 1036.36 1147.57 1052.16 C 1097.89 1082.11 1031.39 1085.64 975.885 1075.46 C 905.769 1061.71 828.588 1022.66 788.79 962.199 C 717.467 853.843 805.436 765.134 917.767 821.165 C 949.41 836.948 1001.56 864.059 1033.96 838.455 C 1101.13 785.386 1069.67 704.426 1029.28 646.222 L 1027.89 649.408 C 1048.02 685.038 1063.55 728.62 1061.21 769.848 C 1039.61 754.556 998.387 723.277 988.494 698.977 C 983.43 691.721 979.29 682.499 975.447 674.438 C 956.955 629.239 957.218 593.165 963.485 545.835 z"/>
<path fill="rgb(187,187,171)" d="M 1027.89 649.408 C 1023.42 642.155 1018.69 634.844 1014.93 627.214 C 1020.5 632.903 1025.14 639.441 1029.28 646.222 L 1027.89 649.408 z"/>
<path fill="rgb(187,187,171)" d="M 1193.98 723.386 C 1198.93 719.764 1204.17 716.569 1209.65 713.837 C 1204.16 719.387 1201.43 721.658 1194.83 726.056 L 1193.98 723.386 z"/>
<path fill="rgb(51,56,28)" d="M 925.071 787.35 C 920.918 785.874 916.796 784.31 912.71 782.657 C 804.429 738.821 748.51 623.395 794.456 513.643 C 843.685 396.046 990.934 348.208 1105 396.376 C 1153.58 416.893 1195.42 453.366 1214.48 503.361 C 1240.36 571.712 1208.71 635.819 1141.57 662.139 C 1156.68 639.318 1167.25 621.201 1173.38 593.951 C 1200.55 473.069 1116.5 368.544 989.398 391.069 C 946.349 398.812 908.24 423.585 883.691 459.786 C 814.823 559.751 847.938 705.021 946.353 773.059 C 964.892 783.647 981.022 791.589 1001.72 796.084 C 1003.57 796.485 1003.97 797.79 1004.6 799.234 C 995.54 806.904 936.427 791.663 925.071 787.35 z"/>
<path fill="rgb(166,141,101)" d="M 1145.66 877.415 C 1191.91 870.412 1263.71 894.227 1273.19 946.995 C 1282.38 998.1 1233.27 1039.62 1191.41 1057.72 C 1180.28 1062.53 1165.53 1068.96 1153.68 1070.53 C 1170.96 1052.92 1185.15 1049.51 1193.62 1022.1 C 1198.94 1000.58 1193.14 975.299 1172.74 964.705 C 1123.69 939.241 1074.82 994.16 1023.55 961.05 C 1006.42 949.992 999.901 946.048 993.92 925.005 C 1003.15 920.342 1027.64 913.51 1038.81 909.362 C 1078.5 894.627 1102.8 881.352 1145.66 877.415 z"/>
<path fill="rgb(121,116,57)" d="M 1256.9 375.709 C 1278.86 374.624 1297.59 391.452 1298.85 413.404 C 1300.11 435.357 1283.44 454.22 1261.5 455.661 C 1239.3 457.118 1220.17 440.209 1218.9 418.003 C 1217.62 395.798 1234.68 376.807 1256.9 375.709 z"/>
</svg>
