<svg version="1.1" xmlns="http://www.w3.org/2000/svg" style="display: block;" viewBox="0 0 2048 2048" preserveAspectRatio="xMidYMid meet">
<path transform="translate(0,0)" fill="rgb(51,56,28)" d="M 963.485 545.835 C 1017.69 572.745 1066.48 605.853 1086.79 666.118 C 1104.75 719.412 1087.5 784.551 1056.22 829.273 C 1070.31 818.961 1089.03 802.433 1095.12 785.818 C 1127.6 697.253 1197.42 662.694 1288.38 653.909 C 1282.54 702.325 1255.82 754.594 1216.68 784.166 C 1176.27 814.702 1143.15 818.731 1095.83 823.256 C 1126.52 789.442 1156.71 752.591 1194.83 726.056 L 1193.98 723.386 C 1163.19 742.015 1140.22 758.562 1114.59 784.346 C 1094.09 804.962 1076.37 825.864 1052.85 843.542 C 999.442 883.678 936.238 892.006 877.623 857.328 C 859.367 845.942 844.976 828.899 822.575 825.956 C 802.742 823.35 790.541 832.603 781.389 849.612 C 772.245 866.608 775.276 889.717 788.598 903.722 C 811.339 927.629 849.895 924.028 879.916 929.087 C 896.868 931.898 912.803 934.718 928.935 940.971 C 943.845 946.803 958.194 953.975 971.808 962.399 C 999.814 979.526 1016.13 994.778 1049.64 1000.03 C 1081.66 1007.56 1117.44 984.33 1146.89 987.002 C 1187.6 990.695 1173.77 1036.36 1147.57 1052.16 C 1097.89 1082.11 1031.39 1085.64 975.885 1075.46 C 905.769 1061.71 828.588 1022.66 788.79 962.199 C 717.467 853.843 805.436 765.134 917.767 821.165 C 949.41 836.948 1001.56 864.059 1033.96 838.455 C 1101.13 785.386 1069.67 704.426 1029.28 646.222 L 1027.89 649.408 C 1048.02 685.038 1063.55 728.62 1061.21 769.848 C 1039.61 754.556 998.387 723.277 988.494 698.977 C 983.43 691.721 979.29 682.499 975.447 674.438 C 956.955 629.239 957.218 593.165 963.485 545.835 z"/>
<path transform="translate(0,0)" fill="rgb(187,187,171)" d="M 1027.89 649.408 C 1023.42 642.155 1018.69 634.844 1014.93 627.214 C 1020.5 632.903 1025.14 639.441 1029.28 646.222 L 1027.89 649.408 z"/>
<path transform="translate(0,0)" fill="rgb(187,187,171)" d="M 1193.98 723.386 C 1198.93 719.764 1204.17 716.569 1209.65 713.837 C 1204.16 719.387 1201.43 721.658 1194.83 726.056 L 1193.98 723.386 z"/>
<path transform="translate(0,0)" fill="rgb(51,56,28)" d="M 925.071 787.35 C 920.918 785.874 916.796 784.31 912.71 782.657 C 804.429 738.821 748.51 623.395 794.456 513.643 C 843.685 396.046 990.934 348.208 1105 396.376 C 1153.58 416.893 1195.42 453.366 1214.48 503.361 C 1240.36 571.712 1208.71 635.819 1141.57 662.139 C 1156.68 639.318 1167.25 621.201 1173.38 593.951 C 1200.55 473.069 1116.5 368.544 989.398 391.069 C 946.349 398.812 908.24 423.585 883.691 459.786 C 814.823 559.751 847.938 705.021 946.353 773.059 C 964.892 783.647 981.022 791.589 1001.72 796.084 C 1003.57 796.485 1003.97 797.79 1004.6 799.234 C 995.54 806.904 936.427 791.663 925.071 787.35 z"/>
<path transform="translate(0,0)" fill="rgb(166,141,101)" d="M 1145.66 877.415 C 1191.91 870.412 1263.71 894.227 1273.19 946.995 C 1282.38 998.1 1233.27 1039.62 1191.41 1057.72 C 1180.28 1062.53 1165.53 1068.96 1153.68 1070.53 C 1170.96 1052.92 1185.15 1049.51 1193.62 1022.1 C 1198.94 1000.58 1193.14 975.299 1172.74 964.705 C 1123.69 939.241 1074.82 994.16 1023.55 961.05 C 1006.42 949.992 999.901 946.048 993.92 925.005 C 1003.15 920.342 1027.64 913.51 1038.81 909.362 C 1078.5 894.627 1102.8 881.352 1145.66 877.415 z"/>
<path transform="translate(0,0)" fill="rgb(51,56,28)" d="M 696.815 1185.84 C 718.495 1185.77 742.2 1184.75 763.587 1186.71 C 816.099 1191.52 828.119 1259.93 776.39 1280.13 L 811.199 1329.21 L 795.037 1329.35 C 788.713 1322.41 768.288 1292.12 761.912 1283.08 C 749.72 1284.58 724.977 1283.9 711.832 1283.87 L 711.869 1329.25 L 696.737 1329.3 L 696.815 1185.84 z"/>
<path transform="translate(0,0)" fill="rgb(247,238,228)" d="M 711.832 1198.88 C 728.546 1198.86 746.802 1197.72 763.227 1199.96 C 794.129 1204.16 803.554 1237.87 783.997 1260.52 C 765.413 1274.74 735.362 1271.12 711.879 1270.98 L 711.832 1198.88 z"/>
<path transform="translate(0,0)" fill="rgb(51,56,28)" d="M 537.54 1185.24 C 563.732 1182.63 583.737 1187.04 603.029 1205.23 L 593.629 1214.81 C 581.318 1204.1 570.756 1199.06 554.03 1198 C 498.809 1194.48 468.037 1256.2 504.119 1297.86 C 514.592 1309.96 531.561 1316.63 547.441 1317 C 559.677 1317.29 576.677 1315.17 586.101 1306.57 C 588.339 1304.36 587.714 1302.24 587.739 1299.02 L 587.677 1257.66 L 602.095 1257.66 L 602.086 1312.52 C 574.9 1334.18 533.709 1337.25 504.659 1317.53 C 489.019 1306.91 478.332 1290.42 475.025 1271.81 C 466.966 1227.39 494.038 1193.01 537.54 1185.24 z"/>
<path transform="translate(0,0)" fill="rgb(121,116,57)" d="M 1256.9 375.709 C 1278.86 374.624 1297.59 391.452 1298.85 413.404 C 1300.11 435.357 1283.44 454.22 1261.5 455.661 C 1239.3 457.118 1220.17 440.209 1218.9 418.003 C 1217.62 395.798 1234.68 376.807 1256.9 375.709 z"/>
<path transform="translate(0,0)" fill="rgb(51,56,28)" d="M 1062.12 1185.87 L 1078.66 1185.81 L 1133.56 1310.5 C 1152.4 1270 1170.8 1226.8 1189.01 1185.83 L 1204.31 1185.88 L 1197.95 1200.29 L 1140.9 1329.28 L 1125.71 1329.31 C 1107.16 1284.15 1082.33 1230.63 1062.12 1185.87 z"/>
<path transform="translate(0,0)" fill="rgb(51,56,28)" d="M 1503.68 1185.86 L 1518.7 1185.82 L 1584.24 1329.23 L 1568.12 1329.35 C 1552.83 1291.21 1531.27 1246.64 1514.29 1208.55 C 1512.66 1205.25 1513.04 1204.38 1510.52 1203.46 C 1506.23 1210.66 1496.55 1233.89 1492.31 1243.35 L 1453.89 1329.27 L 1437.99 1329.29 C 1460.29 1283.23 1482.28 1232.68 1503.68 1185.86 z"/>
<path transform="translate(0,0)" fill="rgb(51,56,28)" d="M 1256.29 1185.89 L 1272.48 1185.8 C 1288.11 1212.52 1305.44 1239.99 1321.57 1266.49 L 1370.78 1185.83 L 1385.89 1185.89 L 1361.12 1226.48 L 1328.62 1279.69 L 1328.65 1329.22 L 1313.67 1329.34 L 1313.67 1279.87 L 1256.29 1185.89 z"/>
<path transform="translate(0,0)" fill="rgb(166,141,101)" d="M 1060.81 1400.07 C 1080.03 1399.76 1114.47 1395.86 1108.33 1427.07 C 1107.09 1433.39 1101.23 1437.19 1096.13 1440.3 C 1099.64 1445.12 1108.39 1454.38 1107.62 1459.81 L 1102.72 1461.33 C 1098.01 1457.17 1091.75 1447.37 1087.92 1441.85 L 1069.2 1441.94 C 1069.31 1447.22 1069.81 1454.18 1068.73 1459.18 C 1065.9 1460.04 1065.32 1459.6 1062.22 1459.25 C 1059.59 1455.93 1060.78 1408.36 1060.81 1400.07 z"/>
<path transform="translate(0,0)" fill="rgb(247,238,228)" d="M 1069.21 1407.76 C 1083.97 1407.15 1111.96 1407.98 1096.83 1430.88 C 1087.43 1435.91 1079.88 1434.64 1069.24 1434.45 L 1069.21 1407.76 z"/>
<path transform="translate(0,0)" fill="rgb(166,141,101)" d="M 1175.21 1400.04 C 1178.7 1399.92 1180.19 1399.61 1183.48 1400.86 C 1187.41 1407.55 1207.37 1450.98 1209.48 1458.56 L 1208.56 1459.52 C 1205.66 1459.86 1205.21 1460.21 1202.53 1459.29 C 1199.01 1455.59 1197.23 1449.93 1195.22 1445.05 L 1186.06 1445.08 L 1163.41 1445.05 C 1159.96 1453.71 1160.02 1459.94 1150.3 1459.67 L 1149.29 1458.42 C 1152.29 1448.58 1170.08 1411.29 1175.21 1400.04 z"/>
<path transform="translate(0,0)" fill="rgb(247,238,228)" d="M 1179.24 1409.69 C 1183.17 1416.28 1188.94 1430.54 1192.23 1438.08 L 1178.77 1438.13 L 1166.64 1438.11 C 1170.64 1428.55 1174.84 1419.07 1179.24 1409.69 z"/>
<path transform="translate(0,0)" fill="rgb(166,141,101)" d="M 795.632 1400.06 C 799.371 1399.91 800.181 1399.7 803.842 1400.86 C 809.645 1411.04 825.631 1446.78 829.866 1458.09 L 829.044 1459.46 C 826.001 1459.88 825.627 1460.18 822.689 1459.18 C 819.219 1455.53 817.566 1449.91 815.65 1445.06 L 801.75 1445.07 L 783.78 1445.02 C 781.969 1449.27 779.143 1457.45 776.06 1459.76 C 773.405 1459.8 771.479 1460.21 769.451 1458.67 C 771.804 1450.5 791.472 1409.09 795.632 1400.06 z"/>
<path transform="translate(0,0)" fill="rgb(247,238,228)" d="M 799.331 1409.69 C 802.233 1413.51 809.902 1432.08 811.652 1437.12 C 810.033 1438.57 806 1438.07 803.25 1438.11 L 786.752 1438.08 L 799.331 1409.69 z"/>
<path transform="translate(0,0)" fill="rgb(166,141,101)" d="M 673.757 1399.96 C 674.538 1399.94 678.267 1399.87 678.524 1400.05 C 688.425 1407.11 709.441 1435.68 716.788 1444.93 C 716.761 1438.42 716.035 1404.19 717.534 1400.65 C 720.845 1399.46 720.975 1399.75 724.348 1400.41 C 725.768 1403.44 725.093 1453.32 725.075 1460.14 L 720.016 1459.9 C 713.868 1456.84 688.577 1423.35 682.193 1415.3 C 682.093 1423.55 683.356 1453.69 680.872 1458.85 C 677.963 1460.99 679.55 1460.55 675.946 1460.21 C 672.177 1456.22 673.733 1409.34 673.757 1399.96 z"/>
<path transform="translate(0,0)" fill="rgb(51,56,28)" d="M 925.505 1316.54 C 947.733 1315.54 975.322 1316.21 997.97 1316.19 L 997.962 1329.25 L 967.5 1329.25 L 896.277 1329.3 L 896.308 1316.84 C 905.46 1316.9 916.533 1317.26 925.505 1316.54 z"/>
<path transform="translate(0,0)" fill="rgb(51,56,28)" d="M 896.229 1185.83 L 994.963 1185.85 C 995.027 1190.54 994.901 1194.19 994.609 1198.87 C 960.727 1198.84 929.979 1199.34 896.253 1200.01 L 896.229 1185.83 z"/>
<path transform="translate(0,0)" fill="rgb(51,56,28)" d="M 896.285 1249.86 C 926.152 1250.09 956.021 1250.14 985.888 1250 C 985.929 1254.46 985.781 1258.5 985.604 1262.94 C 954.732 1262.88 926.911 1263.38 896.197 1263.99 L 896.285 1249.86 z"/>
<path transform="translate(0,0)" fill="rgb(166,141,101)" d="M 958.136 1399.97 C 961.627 1399.91 962.177 1399.79 965.685 1400.51 C 971.773 1409.81 953.911 1462.66 990.875 1451.84 C 1007.26 1447.05 996.269 1414.77 1002.19 1401.18 C 1005.28 1399.24 1003.61 1399.68 1007.43 1400.03 C 1009.51 1402.27 1008.82 1401.78 1008.92 1405.75 C 1009.06 1418.98 1011.54 1443.23 1002.49 1453.59 C 993.197 1463.55 973.491 1463.14 964.37 1453.35 C 956.693 1445.12 958.049 1430.57 957.962 1420.09 C 957.908 1413.52 958.064 1406.6 958.136 1399.97 z"/>
<path transform="translate(0,0)" fill="rgb(166,141,101)" d="M 1348.89 1400.25 L 1349.86 1400.15 C 1355.9 1399.57 1376.83 1398.45 1376.56 1407.32 C 1371.39 1413.14 1359.68 1404.84 1352.27 1407.1 C 1346.82 1408.76 1342.42 1411.88 1343.83 1418.03 C 1350.56 1426.73 1362.62 1425.32 1370.26 1430.48 C 1390.34 1444.04 1377.85 1457.54 1359.67 1460.83 C 1353.9 1460.92 1332.76 1459.13 1334.79 1450.63 C 1341.24 1446.1 1354.12 1455.7 1362.44 1453.26 C 1368.83 1451.39 1372.8 1448.3 1370.71 1441.13 C 1361.97 1429.91 1328.02 1435.34 1336.17 1411.83 C 1338.65 1404.7 1342.38 1403.2 1348.89 1400.25 z"/>
<path transform="translate(0,0)" fill="rgb(166,141,101)" d="M 865.185 1400.05 C 871.961 1400.01 911.981 1398.73 914.528 1401.58 C 914.687 1405.4 915.36 1405.24 913.547 1407.58 L 894.555 1407.7 L 894.49 1437.25 C 894.581 1444.19 895.907 1456.31 892.032 1461.12 L 888.833 1461.03 C 884.159 1454.48 885.934 1418.02 886.011 1407.77 C 881.563 1407.59 877.605 1408.13 873.221 1408.15 C 865.221 1408.2 865.812 1406.08 865.185 1400.05 z"/>
<path transform="translate(0,0)" fill="rgb(166,141,101)" d="M 1254.28 1399.97 C 1257.5 1399.94 1258.21 1399.97 1261.57 1400.47 C 1264.1 1403.3 1262.96 1445.59 1262.93 1452.65 C 1273.36 1452.81 1283.38 1451.12 1293.14 1453.31 C 1295.93 1455.76 1295.04 1454.96 1295.43 1460 L 1254.26 1460.02 L 1254.28 1399.97 z"/>
<path transform="translate(0,0)" fill="rgb(51,56,28)" d="M 553.897 1430.5 C 559.05 1430.35 567.255 1429.59 571.564 1432.15 C 565.511 1435.76 425.154 1433.89 405.75 1433.89 C 400.883 1434.01 393.889 1434.69 389.763 1432.49 C 395.533 1428.6 534.871 1430.53 553.897 1430.5 z"/>
<path transform="translate(0,0)" fill="rgb(51,56,28)" d="M 1650.51 1430.48 C 1654.78 1430.22 1656.95 1429.51 1659.88 1432.07 C 1653.99 1435.76 1504.64 1433.86 1484.53 1433.85 C 1481.12 1433.98 1476.77 1434.66 1474.63 1431.61 C 1481.08 1430.15 1520.11 1430.64 1529.34 1430.64 L 1650.51 1430.48 z"/>
<path transform="translate(0,0)" fill="rgb(49,49,44)" d="M 844.053 1553.37 C 846.855 1552 850.18 1552.23 852.76 1553.99 C 855.339 1555.75 856.776 1558.76 856.521 1561.87 C 856.266 1564.98 854.36 1567.71 851.529 1569.03 C 847.217 1571.03 842.096 1569.19 840.047 1564.9 C 837.998 1560.61 839.785 1555.47 844.053 1553.37 z"/>
<path transform="translate(0,0)" fill="rgb(49,49,44)" d="M 1489.1 1553.41 C 1491.9 1552.01 1495.25 1552.23 1497.84 1553.99 C 1500.44 1555.75 1501.88 1558.78 1501.61 1561.91 C 1501.34 1565.04 1499.4 1567.77 1496.53 1569.06 C 1492.24 1570.99 1487.18 1569.14 1485.15 1564.88 C 1483.13 1560.62 1484.88 1555.52 1489.1 1553.41 z"/>
<path transform="translate(0,0)" fill="rgb(49,49,44)" d="M 1550.77 1553.37 C 1553.64 1551.96 1557.05 1552.25 1559.64 1554.12 C 1562.24 1555.99 1563.58 1559.13 1563.15 1562.3 C 1562.72 1565.46 1560.58 1568.13 1557.58 1569.24 C 1553.26 1570.83 1548.46 1568.76 1546.64 1564.54 C 1544.83 1560.31 1546.64 1555.4 1550.77 1553.37 z"/>
<path transform="translate(0,0)" fill="rgb(49,49,44)" d="M 1634.46 1553.44 C 1638.66 1551.31 1643.79 1552.95 1645.99 1557.12 C 1648.18 1561.29 1646.63 1566.45 1642.5 1568.71 C 1639.76 1570.21 1636.43 1570.12 1633.78 1568.47 C 1631.13 1566.82 1629.58 1563.87 1629.72 1560.76 C 1629.86 1557.64 1631.67 1554.84 1634.46 1553.44 z"/>
<path transform="translate(0,0)" fill="rgb(49,49,44)" d="M 970.608 1553.41 C 973.453 1551.99 976.845 1552.25 979.438 1554.09 C 982.03 1555.93 983.403 1559.04 983.011 1562.2 C 982.618 1565.35 980.524 1568.03 977.56 1569.18 C 973.261 1570.84 968.415 1568.83 966.556 1564.61 C 964.697 1560.39 966.481 1555.46 970.608 1553.41 z"/>
<path transform="translate(0,0)" fill="rgb(49,49,44)" d="M 1124.56 1553.41 C 1127.39 1552.01 1130.77 1552.27 1133.36 1554.09 C 1135.94 1555.92 1137.32 1559.01 1136.95 1562.16 C 1136.57 1565.3 1134.5 1567.98 1131.56 1569.15 C 1127.26 1570.85 1122.39 1568.86 1120.51 1564.64 C 1118.64 1560.42 1120.42 1555.46 1124.56 1553.41 z"/>
<path transform="translate(0,0)" fill="rgb(29,30,25)" d="M 615.947 1552.81 C 626.628 1552.7 634.441 1553.72 630.261 1566.93 C 624.215 1569.65 622.609 1569.18 615.899 1569.46 L 615.947 1552.81 z"/>
<path transform="translate(0,0)" fill="rgb(49,49,44)" d="M 1293.07 1552.85 C 1296.93 1552.75 1299.73 1552.32 1303.29 1553.76 C 1306.95 1557.87 1306.5 1561.69 1307.59 1567.69 C 1303.21 1569.5 1297.86 1569.41 1293.01 1569.71 L 1293.07 1552.85 z"/>
<path transform="translate(0,0)" fill="rgb(49,49,44)" d="M 421.03 1552.81 C 444.203 1553.05 427.542 1558.33 433.461 1567.71 L 432.49 1569.19 C 431.205 1567.73 430.041 1566.49 428.705 1565.08 C 425.201 1564.57 425.746 1565.15 421.808 1567.37 C 420.508 1564.53 421.023 1556.5 421.03 1552.81 z"/>
<path transform="translate(0,0)" fill="rgb(49,49,44)" d="M 1576.94 1552.84 C 1581.63 1552.91 1584.95 1552.57 1589.14 1554.5 C 1590.32 1557.99 1587.99 1561.39 1587.68 1564.84 C 1587.49 1566.92 1589.15 1564.58 1588.97 1569.65 C 1586.92 1567.3 1586.45 1566.88 1584.01 1564.91 C 1580.34 1564.88 1581.15 1565.14 1577.45 1567.25 C 1576.63 1562.79 1576.91 1557.46 1576.94 1552.84 z"/>
<path transform="translate(0,0)" fill="rgb(49,49,44)" d="M 1603.95 1552.78 C 1608.71 1552.79 1612.85 1551.99 1616.08 1555.69 C 1616.23 1559.44 1616.26 1560.38 1614.9 1563.98 C 1613.79 1566.91 1616.11 1564.29 1615.96 1569.67 C 1614 1567.45 1613.34 1566.84 1611.08 1564.93 C 1607.34 1564.92 1608.23 1565.12 1604.49 1567.21 C 1603.63 1562.77 1603.92 1557.38 1603.95 1552.78 z"/>
<path transform="translate(0,0)" fill="rgb(29,30,25)" d="M 1418.93 1552.84 C 1423.44 1552.9 1427 1552.61 1431.01 1554.49 C 1432.27 1558.12 1429.99 1561.2 1429.65 1564.81 C 1429.38 1567.71 1431.23 1563.88 1430.92 1569.53 C 1428.97 1567.31 1428.38 1566.78 1426.1 1564.88 C 1422.35 1564.84 1423.27 1565.05 1419.5 1567.26 C 1418.68 1562.78 1418.93 1557.46 1418.93 1552.84 z"/>
<path transform="translate(0,0)" fill="rgb(49,49,44)" d="M 563.766 1552.76 C 568.547 1552.8 572.938 1551.96 575.925 1555.94 C 576.124 1560.23 575.703 1561.08 574.098 1565.09 L 575.406 1567.06 L 574.5 1568.78 C 572.947 1566.68 572.635 1566.47 570.649 1564.72 C 567.367 1564.63 567.876 1565.13 564.489 1567.5 C 563.358 1564.44 563.756 1556.43 563.766 1552.76 z"/>
<path transform="translate(0,0)" fill="rgb(49,49,44)" d="M 366 1552.8 C 371.701 1552.91 379.198 1552.71 379.931 1560.07 C 378.446 1562.17 378.028 1562.13 375.738 1563.46 C 369.531 1564.33 371.881 1563.29 366.961 1567.66 C 365.338 1565.74 366.013 1556.26 366 1552.8 z"/>
<path transform="translate(0,0)" fill="rgb(49,49,44)" d="M 1676.8 1566.32 C 1677.9 1563.14 1680.35 1555.1 1682.56 1553.4 L 1682.93 1555.22 C 1681.1 1561.01 1679.02 1566.69 1676.98 1572.42 C 1674.93 1567.58 1673 1561.44 1671.25 1556.39 L 1665.22 1572.9 C 1662.81 1566.17 1660.61 1559.36 1658.64 1552.49 C 1662.78 1554.69 1663.97 1562.08 1665.28 1566.55 C 1667.23 1561.18 1669.25 1555.84 1671.32 1550.52 C 1673.25 1555.24 1675.14 1561.4 1676.8 1566.32 z"/>
<path transform="translate(0,0)" fill="rgb(49,49,44)" d="M 518.101 1565.09 C 518.063 1560.54 517.941 1559.17 518.853 1554.8 L 519.829 1554.43 C 521.482 1559.94 520.921 1564.47 520.645 1570.16 C 515.983 1567.02 512.508 1561.65 509.037 1557.09 C 509.064 1561.95 509.1 1563.2 508.219 1567.9 L 507.327 1568.19 C 505.723 1562.54 506.306 1558.05 506.626 1552.25 C 510.585 1554.94 515.01 1561.16 518.101 1565.09 z"/>
<path transform="translate(0,0)" fill="rgb(29,30,25)" d="M 1532.47 1550.1 C 1532.78 1557.13 1532.64 1560.99 1532.11 1568.03 L 1530.75 1568.37 L 1530.87 1566.94 C 1530.61 1563.9 1530.56 1563.27 1529.78 1560.34 L 1528.47 1560.36 L 1523.71 1567.83 C 1521.44 1564.38 1519.3 1560.53 1517.2 1556.93 C 1517.18 1559.52 1517.51 1565.89 1515.77 1567.48 C 1514.35 1562.05 1514.88 1558.1 1515.13 1552.5 C 1518.8 1554.91 1521.48 1560.92 1523.67 1564.92 L 1532.47 1550.1 z"/>
<path transform="translate(0,0)" fill="rgb(29,30,25)" d="M 687.994 1552.44 C 691.723 1554.72 696.884 1562.09 699.748 1565.8 C 699.714 1562.74 699.284 1556.86 701.021 1554.7 C 702.532 1559.94 702.04 1564.19 701.897 1569.64 C 697.918 1567.81 693.141 1560.87 690.177 1557.16 C 690.139 1559.94 690.415 1565.79 688.801 1567.6 C 687.325 1562.06 687.804 1558.15 687.994 1552.44 z"/>
<path transform="translate(0,0)" fill="rgb(29,30,25)" d="M 870.064 1552.48 C 873.805 1554.72 878.922 1562.09 881.765 1565.79 C 881.771 1562.76 881.404 1556.81 883.125 1554.71 C 884.622 1559.94 884.124 1564.2 883.973 1569.65 C 879.864 1567.53 875.178 1560.76 872.095 1556.91 C 872.077 1559.61 872.377 1565.82 870.785 1567.56 C 869.315 1562.06 869.834 1558.14 870.064 1552.48 z"/>
<path transform="translate(0,0)" fill="rgb(49,49,44)" d="M 1320.85 1552.79 C 1325.02 1552.7 1327.87 1553 1332.05 1553.39 C 1328.57 1554.5 1325.67 1554.95 1323.26 1557.56 L 1323.63 1559.05 C 1326.74 1559.88 1327.71 1559.97 1330.64 1561.37 L 1328.4 1560.96 L 1327.56 1562.48 L 1323.47 1562.59 L 1323.3 1565.05 C 1324.86 1567.34 1328.54 1567.59 1331.89 1568.47 C 1328.61 1569.34 1324.33 1569.31 1320.83 1569.44 L 1320.85 1552.79 z"/>
<path transform="translate(0,0)" fill="rgb(49,49,44)" d="M 1393.12 1552.79 L 1400.85 1552.8 L 1402.21 1554.2 L 1404.24 1553.53 C 1401.53 1554.35 1396.96 1555.17 1395.55 1556.98 C 1397.53 1560.17 1398.69 1559.59 1403 1561.37 C 1400.18 1562.2 1399.2 1562.7 1396.26 1562.63 L 1395.65 1565.03 C 1397.47 1567.49 1400.62 1567.47 1404.26 1568.35 L 1403.36 1568.73 L 1403.93 1568.25 C 1401.13 1569.46 1396.28 1569.37 1393.07 1569.53 L 1393.12 1552.79 z"/>
<path transform="translate(0,0)" fill="rgb(49,49,44)" d="M 590.501 1552.83 C 593.609 1552.73 598.874 1552.39 601.355 1554.15 C 598.509 1554.49 596.066 1554.76 593.24 1555.35 L 592.65 1557.49 C 594.762 1559.8 596.996 1560.02 600.287 1561.16 C 599.209 1562.08 593.999 1562.15 592.117 1562.3 L 593.125 1565.84 C 595.867 1567.16 598.092 1567.7 600.99 1568.53 C 597.621 1569.44 593.959 1569.28 590.432 1569.32 L 590.501 1552.83 z"/>
<path transform="translate(0,0)" fill="rgb(49,49,44)" d="M 1194.33 1552.82 C 1198.39 1552.78 1201.49 1553.05 1205.55 1553.38 C 1201.52 1555.33 1197.98 1554.99 1196.63 1557.48 C 1199.06 1559.97 1200.54 1559.9 1204.14 1561.11 C 1202.21 1562.22 1198.62 1562.1 1196.1 1562.29 L 1197.1 1565.84 C 1199.53 1567.28 1202.12 1567.74 1204.87 1568.46 C 1202.14 1569.24 1197.33 1569.25 1194.29 1569.37 L 1194.33 1552.82 z"/>
<path transform="translate(0,0)" fill="rgb(49,49,44)" d="M 538.942 1552.87 C 542.891 1552.56 542.987 1552.73 546.701 1553.57 L 547.609 1554.55 L 547.978 1554.49 C 544.258 1554.87 541.857 1554.81 538.532 1556.56 C 536.075 1560.06 536.748 1558.14 536.65 1562.6 C 538.688 1566.53 537.259 1565.09 540.933 1567.24 C 544.905 1567.15 543.649 1567.97 545.772 1565.96 L 547.251 1562.2 L 548.312 1562.02 C 549.438 1565.15 549.303 1563.53 548.243 1567.06 C 540.502 1574.38 526.697 1564.49 538.942 1552.87 z"/>
<path transform="translate(0,0)" fill="rgb(49,49,44)" d="M 447.989 1552.84 C 451.381 1552.88 455.069 1552.25 457.196 1554.01 C 453.604 1554.94 451.595 1555.17 449.769 1557.84 C 451.79 1560.51 453.528 1559.81 457.776 1561.29 L 454.947 1561.05 L 454.732 1562.39 L 450.451 1562.54 L 450.3 1565.05 C 451.875 1567.4 455.356 1567.54 458.788 1568.41 C 455.611 1569.24 451.347 1569.24 447.956 1569.39 L 447.989 1552.84 z"/>
<path transform="translate(0,0)" fill="rgb(29,30,25)" d="M 1092.23 1552.66 C 1094.35 1554.36 1094.12 1556.09 1094.35 1558.73 C 1097.65 1561.36 1095.88 1560.77 1099.55 1561.24 C 1104.41 1558.61 1102.71 1556.4 1105.83 1554.02 L 1105.53 1553.91 L 1104.51 1555.65 L 1106.17 1557.01 C 1106.27 1560.99 1106.05 1565.47 1105.95 1569.49 L 1104.82 1568.63 C 1103.83 1566.55 1103.8 1565.58 1103.64 1563.28 C 1100.31 1560.6 1102.1 1561.18 1098.34 1560.81 C 1094.68 1562.8 1093.15 1568.02 1092.51 1568.23 L 1091.94 1565.9 L 1093.61 1566.37 L 1091.92 1564.98 C 1091.8 1560.98 1092.08 1556.68 1092.23 1552.66 z"/>
<path transform="translate(0,0)" fill="rgb(49,49,44)" d="M 661.932 1552.83 C 665.683 1552.78 669.038 1553.07 672.782 1553.33 C 668.532 1554.79 666.416 1554.89 664.035 1558 L 664.988 1559.69 C 668.183 1559.89 668.734 1559.8 671.85 1560.79 C 669.837 1562.51 667.226 1562.29 664.428 1562.52 L 664.267 1565.05 C 665.901 1567.48 669.096 1567.53 672.637 1568.43 C 669.168 1569.19 665.525 1569.2 661.936 1569.4 L 661.932 1552.83 z"/>
<path transform="translate(0,0)" fill="rgb(49,49,44)" d="M 996.464 1552.51 C 1001.49 1555.15 996.231 1560.2 1000.11 1566.42 C 1004.08 1567.64 1002.11 1567.58 1006.22 1566.46 C 1009.76 1561.78 1006.2 1559.33 1008.68 1553.38 L 1010.21 1554.16 C 1010.45 1561.22 1011.49 1568.11 1002.63 1569.53 C 994.518 1566.4 996.003 1559.56 996.464 1552.51 z"/>
<path transform="translate(0,0)" fill="rgb(49,49,44)" d="M 393.128 1552.61 C 397.426 1556.02 392.558 1560.41 396.575 1566.08 C 400.424 1567.64 398.51 1567.42 402.52 1566.91 C 406.188 1562.21 402.659 1558.58 405.577 1553.32 L 406.859 1554.3 C 406.863 1561.76 408.265 1567.43 399.485 1569.55 C 390.935 1566.7 392.639 1559.76 393.128 1552.61 z"/>
<path transform="translate(0,0)" fill="rgb(49,49,44)" d="M 1220.17 1552.86 C 1224.75 1552.85 1224.91 1552.01 1227.34 1554.28 L 1228.85 1553.87 C 1225.23 1554.86 1224.4 1554.91 1221.21 1557.1 C 1222.04 1560.97 1229.06 1559.6 1231.15 1565.25 C 1230.18 1567.95 1228.87 1568.46 1226.5 1570.11 C 1223.72 1569.67 1220.33 1569.46 1218.85 1567.08 C 1222.18 1567.19 1225.35 1567.72 1228.22 1566.28 L 1228.55 1564.38 L 1226.94 1562.62 C 1223.77 1561.93 1221.91 1561.85 1219.41 1559.79 C 1218.51 1555.88 1218.73 1557.19 1220.17 1552.86 z"/>
<path transform="translate(0,0)" fill="rgb(49,49,44)" d="M 899.237 1552.87 C 902.483 1552.69 906.315 1552.12 908.599 1554.64 C 904.889 1555 902.65 1554.53 900.181 1556.42 C 901.582 1561.3 908.102 1559.36 910.188 1565.35 C 909.248 1568.01 907.92 1568.48 905.525 1570.04 C 902.003 1569.42 900.311 1569.49 898.122 1567.22 C 901.654 1567.32 904.059 1567.74 907.255 1566.3 L 907.576 1564.37 L 905.962 1562.6 C 902.783 1561.92 900.956 1561.83 898.405 1559.81 C 897.545 1555.88 897.758 1557.19 899.237 1552.87 z"/>
<path transform="translate(0,0)" fill="rgb(49,49,44)" d="M 1025.22 1552.88 C 1029.12 1552.66 1031.13 1552.53 1034.79 1554.38 C 1031.76 1554.76 1027.61 1554.85 1026.05 1557.46 C 1029.06 1561.64 1033.32 1559.76 1036.12 1563.79 C 1035.72 1567.46 1035.82 1566.35 1033.39 1569.73 C 1029.17 1569.64 1028.37 1569.87 1024.67 1568.15 L 1024.52 1567.17 C 1028.52 1567.04 1030.1 1567.12 1033.92 1566.16 L 1033.98 1564.77 C 1030.63 1561.41 1028.4 1562.03 1024.49 1559.71 C 1023.65 1555.96 1023.94 1557.06 1025.22 1552.88 z"/>
<path transform="translate(0,0)" fill="rgb(49,49,44)" d="M 740.274 1552.94 C 743.738 1552.69 746.732 1552.37 749.719 1554.4 C 746.639 1554.82 742.609 1554.92 740.932 1557.46 C 744.2 1561.48 747.582 1559.53 750.867 1563.41 C 751.281 1566.33 750.552 1566.87 749.081 1569.5 C 745.358 1569.62 745.027 1569.5 741.512 1568.86 L 740.414 1567.78 L 740.261 1568.57 L 739.361 1568.01 C 742.696 1567.69 747.049 1567.71 748.682 1564.63 C 746.227 1561.43 743.113 1561.86 739.487 1559.72 C 738.66 1555.96 738.926 1557.11 740.274 1552.94 z"/>
<path transform="translate(0,0)" fill="rgb(49,49,44)" d="M 1170.96 1552.83 C 1174.9 1552.67 1176.21 1552.26 1179.6 1554.28 C 1174.1 1556.07 1168.71 1556.2 1167.9 1562.1 C 1169.79 1565.49 1169.71 1565.3 1172.93 1567.55 L 1178.81 1566.75 L 1178.94 1567.92 C 1174.94 1569.2 1171.33 1568.15 1167.54 1566.61 C 1163.14 1560.98 1166.35 1557.35 1170.96 1552.83 z"/>
<path transform="translate(0,0)" fill="rgb(49,49,44)" d="M 816.994 1552.81 C 821.003 1552.59 823.53 1552.12 826.364 1555.18 C 820.226 1556.1 817.156 1555.77 813.304 1560.1 L 813.465 1562.24 C 815.878 1565.38 815.897 1565.32 819.121 1567.68 C 821.405 1567.3 823.697 1566.97 825.996 1566.69 C 822.626 1570.67 818.338 1570.37 814.353 1567.72 C 810.784 1561.68 812.215 1557.41 816.994 1552.81 z"/>
<path transform="translate(0,0)" fill="rgb(49,49,44)" d="M 1068.87 1552.84 C 1071.43 1552.7 1076.49 1552.65 1078.14 1554.87 C 1072.85 1555.68 1065.79 1555.89 1065.41 1562.05 C 1067.83 1565.39 1067.78 1565.28 1071.13 1567.73 C 1073.86 1566.93 1075.16 1566.19 1077.75 1567.25 L 1077.51 1568.25 C 1072.67 1569.41 1070.34 1569.79 1066 1566.72 C 1061.98 1560.86 1064.64 1557.11 1068.87 1552.84 z"/>
<path transform="translate(0,0)" fill="rgb(49,49,44)" d="M 926.779 1552.81 C 930.965 1552.68 931.613 1552.45 935.42 1553.87 L 935.72 1555.25 C 930.909 1555.95 929.752 1556.03 925.292 1557.71 C 922.843 1560.48 923.211 1558.98 923.234 1562.05 C 925.758 1565.41 925.687 1565.31 929.119 1567.75 C 931.095 1567.35 933.025 1567.03 935.011 1566.69 L 935.208 1567.66 C 930.719 1568.92 926.062 1568.56 922.119 1565.97 C 919.257 1560.92 923.159 1556.5 926.779 1552.81 z"/>
<path transform="translate(0,0)" fill="rgb(49,49,44)" d="M 1366.27 1553.44 C 1369.67 1552.85 1376.3 1551.74 1379.32 1552.93 L 1378.67 1555.09 L 1379.28 1552.92 C 1374.92 1561.06 1375.65 1555.69 1375.67 1565.25 C 1375.74 1567.74 1375.86 1566.9 1375.11 1569.2 L 1373.62 1568.84 C 1371.91 1564.53 1374.21 1561.6 1372.55 1555.68 C 1370.75 1555.13 1369.5 1554.72 1367.72 1554.02 L 1366.27 1553.44 z"/>
<path transform="translate(0,0)" fill="rgb(49,49,44)" d="M 1342.7 1553.43 C 1345.75 1553 1353.26 1551.96 1355.56 1553.3 C 1350.94 1559.87 1351.85 1556.59 1351.83 1564.24 C 1351.89 1564.91 1351.78 1567.72 1351.76 1568.48 L 1350.47 1569.11 C 1349.18 1566.28 1349.69 1559.75 1349.13 1555.55 C 1346.97 1554.89 1344.83 1554.18 1342.7 1553.43 z"/>
<path transform="translate(0,0)" fill="rgb(49,49,44)" d="M 1458.35 1553.46 C 1464 1552.88 1466.86 1551.48 1470.85 1553.92 L 1470.96 1553.04 C 1466.48 1560.53 1467.22 1555.28 1467.27 1564.25 C 1467.39 1566.95 1467.43 1566.04 1466.74 1568.71 L 1465.81 1567.94 C 1465.21 1563.53 1464.8 1560.09 1464.57 1555.64 C 1462.79 1555.1 1461.51 1554.69 1459.76 1554.02 L 1458.35 1553.46 z"/>
<path transform="translate(0,0)" fill="rgb(29,30,25)" d="M 713.297 1553.45 C 717.268 1553.02 722.165 1552.08 725.889 1553.09 C 721.181 1559.99 722.087 1556.28 722.1 1564.25 C 722.136 1564.89 721.927 1567.57 721.882 1568.31 L 721.053 1568.66 C 719.876 1564.36 719.853 1560.09 719.576 1555.62 C 717.494 1554.87 715.4 1554.14 713.297 1553.45 z"/>
<path transform="translate(0,0)" fill="rgb(49,49,44)" d="M 645.363 1552.43 L 647.246 1553.57 C 648.3 1558.38 647.79 1564.59 647.654 1569.65 L 645.498 1568.29 C 644.448 1563.17 645.086 1557.72 645.363 1552.43 z"/>
<path transform="translate(0,0)" fill="rgb(49,49,44)" d="M 1150.92 1552.51 L 1152.44 1553.85 C 1153.52 1558.85 1153 1564.39 1152.84 1569.59 L 1151.16 1568.15 C 1150.18 1563.16 1150.72 1557.67 1150.92 1552.51 z"/>
<path transform="translate(0,0)" fill="rgb(29,30,25)" d="M 490.193 1552.67 L 491.482 1553.85 C 492.561 1558.84 492.004 1564.29 491.802 1569.47 L 490.155 1567.85 C 489.276 1562.72 489.873 1557.89 490.193 1552.67 z"/>
<path transform="translate(0,0)" fill="rgb(29,30,25)" d="M 950.148 1552.63 L 951.493 1553.85 C 952.568 1558.84 952.032 1564.32 951.847 1569.5 L 950.311 1568.15 C 949.296 1562.76 949.855 1558.12 950.148 1552.63 z"/>
</svg>
